<svg id="e-mail" xmlns="http://www.w3.org/2000/svg" xmlns:xlink="http://www.w3.org/1999/xlink" width="27.425" height="21.544" viewBox="0 0 27.425 21.544">
  <defs>
    <clipPath id="clip-path">
      <rect id="Rectangle_31" data-name="Rectangle 31" width="27.425" height="21.544" fill="#fff"/>
    </clipPath>
  </defs>
  <g id="Group_16" data-name="Group 16" transform="translate(0 0)" clip-path="url(#clip-path)">
    <path id="Path_78" data-name="Path 78" d="M23.465,0H3.959A3.963,3.963,0,0,0,0,3.96V17.585a3.964,3.964,0,0,0,3.959,3.96H23.465a3.965,3.965,0,0,0,3.96-3.96V3.96A3.964,3.964,0,0,0,23.465,0m0,1.893a2.063,2.063,0,0,1,.471.056l-8.229,9.338a2.657,2.657,0,0,1-3.988,0L3.489,1.948a2.061,2.061,0,0,1,.47-.056Zm2.067,15.692a2.069,2.069,0,0,1-2.067,2.067H3.959a2.069,2.069,0,0,1-2.067-2.067V3.96a2.065,2.065,0,0,1,.155-.784L10.3,12.538a4.552,4.552,0,0,0,6.828,0l8.25-9.361a2.045,2.045,0,0,1,.155.783Z" transform="translate(0 0)" fill="#fff"/>
  </g>
</svg>
