<svg xmlns="http://www.w3.org/2000/svg" xmlns:xlink="http://www.w3.org/1999/xlink" width="464.803" height="864.121" viewBox="0 0 464.803 864.121">
  <defs>
    <clipPath id="clip-path">
      <rect id="Rectangle_2286" data-name="Rectangle 2286" width="464.803" height="375.796" transform="translate(0 0)" fill="#ed1c24"/>
    </clipPath>
    <clipPath id="clip-path-2">
      <rect id="Rectangle_2287" data-name="Rectangle 2287" width="464.803" height="375.796" transform="translate(0 0)" fill="#6b0132"/>
    </clipPath>
    <clipPath id="clip-path-3">
      <rect id="Rectangle_2288" data-name="Rectangle 2288" width="464.803" height="375.796" transform="translate(0 0)" fill="#283891"/>
    </clipPath>
  </defs>
  <g id="Group_176" data-name="Group 176" transform="translate(5902.803 3722.079)">
    <g id="Group_173" data-name="Group 173" transform="translate(-5902.803 -3722.079)" clip-path="url(#clip-path)">
      <path id="Path_213" data-name="Path 213" d="M0,.522H183.174s27.971-7.891,28.334,37.7,19.979,39.232,19.979,39.232H417.838V375.643H231.487s-23.248,6.329-23.612-62.521-25.791-58.328-25.791-58.328L0,256.1Z" transform="translate(30.591 0)" fill="#ed1c24"/>
    </g>
    <g id="Group_174" data-name="Group 174" transform="translate(-5902.803 -3477.917)" clip-path="url(#clip-path-2)">
      <path id="Path_214" data-name="Path 214" d="M0,.522H183.174s27.971-7.891,28.334,37.7,19.979,39.232,19.979,39.232H417.838V375.643H231.487s-23.248,6.329-23.612-62.521-25.791-58.328-25.791-58.328L0,256.1Z" transform="translate(30.591 0)" fill="#6b0132"/>
    </g>
    <g id="Group_175" data-name="Group 175" transform="translate(-5902.803 -3233.754)" clip-path="url(#clip-path-3)">
      <path id="Path_215" data-name="Path 215" d="M0,.522H183.174s27.971-7.891,28.334,37.7,19.979,39.232,19.979,39.232H417.838V375.643H231.487s-23.248,6.329-23.612-62.521-25.791-58.328-25.791-58.328L0,256.1Z" transform="translate(30.591 0)" fill="#283891"/>
    </g>
  </g>


  
</svg>
