<svg id="TikTok" xmlns="http://www.w3.org/2000/svg" xmlns:xlink="http://www.w3.org/1999/xlink" width="24.032" height="28.083" viewBox="0 0 24.032 28.083">
  <defs>
    <clipPath id="clip-path">
      <rect id="Rectangle_30" data-name="Rectangle 30" width="24.032" height="28.083" fill="#fff"/>
    </clipPath>
  </defs>
  <g id="Group_14" data-name="Group 14" transform="translate(0 0)" clip-path="url(#clip-path)">
    <path id="Path_76" data-name="Path 76" d="M24.028,11.362q-.344.034-.69.035a7.5,7.5,0,0,1-6.273-3.39V19.551a8.532,8.532,0,1,1-8.532-8.532c.178,0,.353.016.528.027v4.2a4.222,4.222,0,0,0-.528-.054,4.355,4.355,0,0,0,0,8.71,4.461,4.461,0,0,0,4.53-4.3L13.1,0h4.023a7.492,7.492,0,0,0,6.905,6.689v4.673" transform="translate(0 0)" fill="#fff"/>
  </g>
</svg>
